<mxfile host="app.diagrams.net" modified="2023-05-04T06:16:47.907Z" agent="Mozilla/5.0 (Macintosh; Intel Mac OS X 10_15_7) AppleWebKit/537.36 (KHTML, like Gecko) Chrome/112.0.0.0 Safari/537.36" version="21.2.7" etag="oUbRsipbZi8XzJIIdTm3" type="github">
  <diagram name="Page-1" id="J5VyM2geSoYlRQvtEP4v">
    <mxGraphModel>
      <root>
        <mxCell id="0" />
        <mxCell id="1" parent="0" />
      </root>
    </mxGraphModel>
  </diagram>
</mxfile>
